<svg xmlns="http://www.w3.org/2000/svg" width="45" height="45" viewBox="0 0 50 50" fill="none">
            <path d="M41.6666 31.25V15.625L28.6458 8.30104M21.3541 8.30104L8.33331 15.625V31.25M11.4583 36.1333L25 43.75L33.3333 39.0625L38.5416 36.1323M25 17.7083L28.125 19.5312L31.25 21.3542V28.6458L28.125 30.4687L25 32.2917L21.875 30.4687L18.75 28.6458V21.3542L21.875 19.5312L25 17.7083ZM25 17.7083V10.4167M31.25 28.125L38.5416 32.2917M18.75 28.125L11.4583 32.2917" stroke="white" stroke-width="2" stroke-linecap="round" stroke-linejoin="round" />
            <path d="M25 10.4167C26.7259 10.4167 28.125 9.01755 28.125 7.29166C28.125 5.56577 26.7259 4.16666 25 4.16666C23.2741 4.16666 21.875 5.56577 21.875 7.29166C21.875 9.01755 23.2741 10.4167 25 10.4167Z" stroke="white" stroke-width="2" stroke-linecap="round" stroke-linejoin="round" />
            <path d="M8.33331 37.5C10.0592 37.5 11.4583 36.1009 11.4583 34.375C11.4583 32.6491 10.0592 31.25 8.33331 31.25C6.60742 31.25 5.20831 32.6491 5.20831 34.375C5.20831 36.1009 6.60742 37.5 8.33331 37.5Z" stroke="white" stroke-width="2" stroke-linecap="round" stroke-linejoin="round" />
            <path d="M41.6666 37.5C43.3925 37.5 44.7916 36.1009 44.7916 34.375C44.7916 32.6491 43.3925 31.25 41.6666 31.25C39.9407 31.25 38.5416 32.6491 38.5416 34.375C38.5416 36.1009 39.9407 37.5 41.6666 37.5Z" stroke="white" stroke-width="2" stroke-linecap="round" stroke-linejoin="round" />
        </svg>