<svg xmlns="http://www.w3.org/2000/svg" width="45" height="45" viewBox="0 0 50 50" fill="none">
            <path d="M11.7344 40.625C10.9745 40.6263 10.2179 40.5265 9.4844 40.3281C7.28269 39.7002 5.41476 38.2344 4.28138 36.2452C3.14799 34.2559 2.83943 31.9016 3.4219 29.6875L7.06252 15.875C7.34605 14.7571 7.85009 13.7072 8.54505 12.7869C9.24 11.8665 10.1119 11.0943 11.1094 10.5156C12.0807 9.95303 13.154 9.58878 14.267 9.44394C15.3801 9.29911 16.5109 9.37658 17.5938 9.67186C18.7449 9.99153 19.8171 10.5469 20.7424 11.3027C21.6676 12.0585 22.4258 12.9983 22.9688 14.0625H27.0313C27.5719 12.9966 28.3293 12.0554 29.2549 11.2993C30.1805 10.5432 31.2539 9.98888 32.4063 9.67186C33.4892 9.37658 34.6199 9.29911 35.733 9.44394C36.8461 9.58878 37.9194 9.95303 38.8906 10.5156C39.8833 11.0928 40.752 11.8608 41.4466 12.7752C42.1411 13.6897 42.6478 14.7326 42.9375 15.8437L46.5782 29.6875C47.1693 31.9081 46.8632 34.2721 45.7259 36.2689C44.5887 38.2657 42.7115 39.735 40.5 40.3594C39.4171 40.6546 38.2864 40.7321 37.1733 40.5873C36.0602 40.4424 34.9869 40.0782 34.0156 39.5156C33.0213 38.9404 32.1514 38.1731 31.4566 37.2584C30.7618 36.3436 30.2561 35.2997 29.9688 34.1875L29.6875 32.8125H20.3125L19.9532 34.1562C19.6659 35.2684 19.1601 36.3123 18.4653 37.2271C17.7705 38.1419 16.9006 38.9092 15.9063 39.4844C14.6367 40.2166 13.1999 40.6094 11.7344 40.625ZM15.3594 12.5C14.4165 12.5032 13.4905 12.7508 12.6719 13.2187C11.3889 13.9715 10.4562 15.2019 10.0781 16.6406L6.43752 30.4531C6.05657 31.8761 6.24906 33.3918 6.97364 34.6745C7.69823 35.9571 8.89706 36.9043 10.3125 37.3125C10.9961 37.499 11.7099 37.548 12.4126 37.4568C13.1153 37.3656 13.7929 37.136 14.4063 36.7812C15.0449 36.4126 15.6033 35.9199 16.0487 35.3323C16.4942 34.7446 16.8176 34.0738 17 33.3594L17.9688 29.6875H32.0313L32.9844 33.3594C33.17 34.0725 33.4948 34.7418 33.9399 35.3291C34.385 35.9163 34.9417 36.4098 35.5782 36.7812C36.1945 37.1357 36.8748 37.365 37.5799 37.4562C38.2851 37.5473 39.0013 37.4985 39.6875 37.3125C41.1047 36.9081 42.305 35.9608 43.0277 34.6764C43.7503 33.392 43.9369 31.8743 43.5469 30.4531L39.9063 16.6406C39.7249 15.9278 39.4035 15.2582 38.9609 14.6707C38.5183 14.0833 37.9633 13.5897 37.3281 13.2187C36.7118 12.8643 36.0315 12.6349 35.3264 12.5438C34.6212 12.4526 33.905 12.5015 33.2188 12.6875C32.3701 12.9294 31.5914 13.3703 30.9473 13.9736C30.3033 14.5769 29.8125 15.3252 29.5156 16.1562L29.1406 17.1875H20.8594L20.4844 16.1562C20.1849 15.3241 19.6914 14.5753 19.0446 13.972C18.3979 13.3688 17.6166 12.9284 16.7656 12.6875C16.3071 12.5638 15.8343 12.5008 15.3594 12.5Z" fill="white" />
            <path d="M15.625 25C15.0069 25 14.4027 24.8167 13.8888 24.4733C13.3749 24.13 12.9744 23.6419 12.7379 23.0709C12.5014 22.4999 12.4395 21.8715 12.56 21.2653C12.6806 20.6592 12.9783 20.1023 13.4153 19.6653C13.8523 19.2283 14.4092 18.9306 15.0153 18.81C15.6215 18.6895 16.2499 18.7514 16.8209 18.9879C17.3919 19.2244 17.88 19.6249 18.2233 20.1388C18.5667 20.6527 18.75 21.2569 18.75 21.875C18.75 22.7038 18.4208 23.4987 17.8347 24.0847C17.2487 24.6708 16.4538 25 15.625 25Z" fill="white" />
            <path d="M34.375 20.3125C35.2379 20.3125 35.9375 19.6129 35.9375 18.75C35.9375 17.8871 35.2379 17.1875 34.375 17.1875C33.5121 17.1875 32.8125 17.8871 32.8125 18.75C32.8125 19.6129 33.5121 20.3125 34.375 20.3125Z" fill="white" />
            <path d="M34.375 26.5625C35.2379 26.5625 35.9375 25.8629 35.9375 25C35.9375 24.1371 35.2379 23.4375 34.375 23.4375C33.5121 23.4375 32.8125 24.1371 32.8125 25C32.8125 25.8629 33.5121 26.5625 34.375 26.5625Z" fill="white" />
            <path d="M31.25 23.4375C32.1129 23.4375 32.8125 22.7379 32.8125 21.875C32.8125 21.0121 32.1129 20.3125 31.25 20.3125C30.3871 20.3125 29.6875 21.0121 29.6875 21.875C29.6875 22.7379 30.3871 23.4375 31.25 23.4375Z" fill="white" />
            <path d="M37.5 23.4375C38.3629 23.4375 39.0625 22.7379 39.0625 21.875C39.0625 21.0121 38.3629 20.3125 37.5 20.3125C36.6371 20.3125 35.9375 21.0121 35.9375 21.875C35.9375 22.7379 36.6371 23.4375 37.5 23.4375Z" fill="white" />
        </svg>