<svg width="319" height="80" viewBox="0 0 319 80" fill="none" xmlns="http://www.w3.org/2000/svg">
<path d="M318.354 76.3536C318.549 76.1583 318.549 75.8417 318.354 75.6464L315.172 72.4645C314.976 72.2692 314.66 72.2692 314.464 72.4645C314.269 72.6597 314.269 72.9763 314.464 73.1716L317.293 76L314.464 78.8284C314.269 79.0237 314.269 79.3403 314.464 79.5355C314.66 79.7308 314.976 79.7308 315.172 79.5355L318.354 76.3536ZM0 1.5H114.085V0.5H0V1.5ZM121.585 9V68H122.585V9H121.585ZM130.085 76.5H318V75.5H130.085V76.5ZM121.585 68C121.585 72.6944 125.391 76.5 130.085 76.5V75.5C125.943 75.5 122.585 72.1421 122.585 68H121.585ZM114.085 1.5C118.227 1.5 121.585 4.85787 121.585 9H122.585C122.585 4.30558 118.78 0.5 114.085 0.5V1.5Z" fill="white"/>
</svg>
